<svg width="40" height="40" viewBox="0 0 40 40" fill="none" xmlns="http://www.w3.org/2000/svg">
<path d="M40 40V33.8462H20V40H40ZM40 24.6154V18.4615H30V24.6154H40ZM40 9.23077V3.07692H30V9.23077H40ZM2.8 40L10.5 28.1538C11.3 29.0256 12.1747 29.679 13.124 30.1138C14.0747 30.5508 15.0333 30.7692 16 30.7692C18.7667 30.7692 21.1247 29.2687 23.074 26.2677C25.0247 23.2687 26 19.641 26 15.3846C26 11.1282 25.0247 7.49949 23.074 4.49846C21.1247 1.49949 18.7667 0 16 0C13.2333 0 10.8747 1.49949 8.924 4.49846C6.97467 7.49949 6 11.1282 6 15.3846C6 16.8718 6.14133 18.3467 6.424 19.8092C6.708 21.2697 7.13334 22.6154 7.7 23.8462L0 35.6923L2.8 40ZM16 24.6154C14.3333 24.6154 12.9167 23.7179 11.75 21.9231C10.5833 20.1282 10 17.9487 10 15.3846C10 12.8205 10.5833 10.641 11.75 8.84615C12.9167 7.05128 14.3333 6.15385 16 6.15385C17.6667 6.15385 19.0833 7.05128 20.25 8.84615C21.4167 10.641 22 12.8205 22 15.3846C22 17.9487 21.4167 20.1282 20.25 21.9231C19.0833 23.7179 17.6667 24.6154 16 24.6154Z" fill="black"/>
</svg>
